<?xml version="1.0" encoding="UTF-8"?>
<svg width="1200pt" height="1200pt" version="1.1" viewBox="0 0 1200 1200" xmlns="http://www.w3.org/2000/svg">
 <path d="m600 305.27c-7.6797 0-19.875 0.53906-32.352 11.098l-294.73 249.39c-3.6328 2.3672-6.0781 6.1797-6.7109 10.469-0.62891 4.293 0.61328 8.6484 3.4141 11.961 2.8008 3.3125 6.8867 5.2617 11.223 5.3516 4.3359 0.09375 8.5039-1.6836 11.441-4.875l294.73-249.38c1.9258-1.6328 13.23-3.7812 12.988-3.7812-0.77734 0 3.25 0.097656 6.3789 0.94531 3.125 0.85156 6.1641 2.457 6.6133 2.8359l294.73 249.38c2.9375 3.1914 7.1055 4.9688 11.441 4.875 4.3359-0.089843 8.4219-2.0391 11.223-5.3516 2.8008-3.3125 4.043-7.668 3.4102-11.961-0.62891-4.2891-3.0742-8.1016-6.707-10.469l-294.73-249.39c-6.1797-5.2266-12.562-7.4453-18.184-8.9727-5.6211-1.5273-9.6719-2.125-14.172-2.125zm-242.06 284.34c-4.0078 0.0625-7.8281 1.7148-10.617 4.5938-2.793 2.8789-4.3242 6.75-4.2617 10.758v274.66c0 4.0078 1.5938 7.8516 4.4258 10.688 2.8359 2.832 6.6797 4.4258 10.688 4.4258h483.66c4.0078 0 7.8516-1.5938 10.684-4.4258 2.8359-2.8359 4.4297-6.6797 4.4297-10.688v-274.66c0.054688-4.0469-1.5117-7.9453-4.3516-10.828-2.8398-2.8789-6.7188-4.5-10.762-4.5-4.0469 0-7.9258 1.6211-10.766 4.5-2.8398 2.8828-4.4062 6.7812-4.3516 10.828v259.54h-453.43v-259.54c0.0625-4.0898-1.5352-8.0312-4.4258-10.926-2.8945-2.8906-6.8359-4.4883-10.926-4.4258z" fill="#fff"/>
</svg>
